<svg width="119" height="35" viewBox="0 0 119 35" fill="none" xmlns="http://www.w3.org/2000/svg">
<path d="M1.452 20V3.94H6.622C8.25 3.94 9.548 4.314 10.516 5.062C11.484 5.79533 11.968 6.79267 11.968 8.054C11.968 8.758 11.7993 9.374 11.462 9.902C11.1393 10.43 10.6993 10.8407 10.142 11.134C9.59933 11.4273 9.00533 11.574 8.36 11.574V11.64C9.07867 11.6253 9.73133 11.7573 10.318 12.036C10.9193 12.3147 11.4033 12.7327 11.77 13.29C12.1367 13.8473 12.32 14.5367 12.32 15.358C12.32 16.2967 12.0927 17.118 11.638 17.822C11.198 18.5113 10.5673 19.0467 9.746 19.428C8.92467 19.8093 7.94933 20 6.82 20H1.452ZM4.642 17.338H6.688C7.40667 17.338 7.97133 17.1473 8.382 16.766C8.79267 16.3847 8.998 15.8567 8.998 15.182C8.998 14.5073 8.79267 13.9793 8.382 13.598C7.97133 13.202 7.40667 13.004 6.688 13.004H4.642V17.338ZM4.642 10.408H6.578C7.22333 10.408 7.72933 10.2393 8.096 9.902C8.46267 9.55 8.646 9.08067 8.646 8.494C8.646 7.89267 8.46267 7.43067 8.096 7.108C7.72933 6.77067 7.22333 6.602 6.578 6.602H4.642V10.408ZM18.2294 20.22C17.0121 20.22 16.0441 19.89 15.3254 19.23C14.6214 18.57 14.2694 17.6753 14.2694 16.546C14.2694 15.3287 14.6874 14.3973 15.5234 13.752C16.3741 13.092 17.5914 12.762 19.1754 12.762H21.6834V11.86C21.6834 11.3907 21.5147 11.0167 21.1774 10.738C20.8547 10.4593 20.4147 10.32 19.8574 10.32C19.3441 10.32 18.9187 10.4373 18.5814 10.672C18.2441 10.9067 18.0387 11.2293 17.9654 11.64H14.7754C14.9074 10.4227 15.4354 9.462 16.3594 8.758C17.2981 8.03933 18.5007 7.68 19.9674 7.68C21.5074 7.68 22.7247 8.06133 23.6194 8.824C24.5287 9.572 24.9834 10.584 24.9834 11.86V20H21.7934V18.02H21.2654L21.8154 17.25C21.8154 18.1593 21.4854 18.8853 20.8254 19.428C20.1801 19.956 19.3147 20.22 18.2294 20.22ZM19.4614 17.8C20.1067 17.8 20.6347 17.6313 21.0454 17.294C21.4707 16.942 21.6834 16.4873 21.6834 15.93V14.632H19.2414C18.7427 14.632 18.3394 14.7787 18.0314 15.072C17.7234 15.3507 17.5694 15.7247 17.5694 16.194C17.5694 16.6927 17.7381 17.0887 18.0754 17.382C18.4127 17.6607 18.8747 17.8 19.4614 17.8ZM29.8368 23.96L31.4868 19.406L26.9548 7.9H30.5408L32.3668 13.18C32.4988 13.576 32.6308 14.06 32.7628 14.632C32.9095 15.1893 33.0195 15.644 33.0928 15.996C33.1661 15.644 33.2688 15.1893 33.4008 14.632C33.5475 14.06 33.6868 13.576 33.8188 13.18L35.5788 7.9H39.0108L33.2908 23.96H29.8368ZM44.9202 20.22C43.7029 20.22 42.7276 19.7947 41.9942 18.944C41.2609 18.0933 40.8942 16.942 40.8942 15.49V12.41C40.8942 10.9727 41.2609 9.82867 41.9942 8.978C42.7276 8.11267 43.7029 7.68 44.9202 7.68C45.9176 7.68 46.7022 7.97333 47.2742 8.56C47.8462 9.132 48.1322 9.93867 48.1322 10.98L47.3622 10.21H48.1322L48.0222 7.24V3.94H51.3222V20H48.1322V17.69H47.3622L48.1322 16.92C48.1322 17.9613 47.8462 18.7753 47.2742 19.362C46.7022 19.934 45.9176 20.22 44.9202 20.22ZM46.1082 17.36C46.7096 17.36 47.1789 17.1913 47.5162 16.854C47.8536 16.502 48.0222 16.0107 48.0222 15.38V12.52C48.0222 11.8893 47.8536 11.4053 47.5162 11.068C47.1789 10.716 46.7096 10.54 46.1082 10.54C45.4922 10.54 45.0156 10.716 44.6782 11.068C44.3556 11.4053 44.1942 11.8893 44.1942 12.52V15.38C44.1942 16.0107 44.3556 16.502 44.6782 16.854C45.0156 17.1913 45.4922 17.36 46.1082 17.36ZM54.5696 20V7.9H57.6496V10.21H58.4856L57.5396 11.618C57.5396 10.3127 57.8403 9.33 58.4416 8.67C59.043 8.01 59.923 7.68 61.0816 7.68C62.4163 7.68 63.4503 8.08333 64.1836 8.89C64.9316 9.69667 65.3056 10.8333 65.3056 12.3V13.29H61.7856V12.52C61.7856 11.86 61.6023 11.3467 61.2356 10.98C60.8836 10.6133 60.407 10.43 59.8056 10.43C59.175 10.43 58.691 10.6133 58.3536 10.98C58.031 11.3467 57.8696 11.86 57.8696 12.52V20H54.5696ZM70.995 20.22C69.7777 20.22 68.8097 19.89 68.091 19.23C67.387 18.57 67.035 17.6753 67.035 16.546C67.035 15.3287 67.453 14.3973 68.289 13.752C69.1397 13.092 70.357 12.762 71.941 12.762H74.449V11.86C74.449 11.3907 74.2804 11.0167 73.943 10.738C73.6204 10.4593 73.1804 10.32 72.623 10.32C72.1097 10.32 71.6844 10.4373 71.347 10.672C71.0097 10.9067 70.8044 11.2293 70.731 11.64H67.541C67.673 10.4227 68.201 9.462 69.125 8.758C70.0637 8.03933 71.2664 7.68 72.733 7.68C74.273 7.68 75.4904 8.06133 76.385 8.824C77.2944 9.572 77.749 10.584 77.749 11.86V20H74.559V18.02H74.031L74.581 17.25C74.581 18.1593 74.251 18.8853 73.591 19.428C72.9457 19.956 72.0804 20.22 70.995 20.22ZM72.227 17.8C72.8724 17.8 73.4004 17.6313 73.811 17.294C74.2364 16.942 74.449 16.4873 74.449 15.93V14.632H72.007C71.5084 14.632 71.105 14.7787 70.797 15.072C70.489 15.3507 70.335 15.7247 70.335 16.194C70.335 16.6927 70.5037 17.0887 70.841 17.382C71.1784 17.6607 71.6404 17.8 72.227 17.8ZM82.3384 23.96V21.32H85.7484C86.3644 21.32 86.8338 21.166 87.1564 20.858C87.4938 20.55 87.6624 20.1247 87.6624 19.582V19.12L87.7064 16.81H86.9364L87.7064 16.04C87.7064 17.0813 87.4204 17.8953 86.8484 18.482C86.2764 19.054 85.4918 19.34 84.4944 19.34C83.2771 19.34 82.3018 18.9147 81.5684 18.064C80.8351 17.2133 80.4684 16.062 80.4684 14.61V12.41C80.4684 10.9727 80.8351 9.82867 81.5684 8.978C82.3018 8.11267 83.2771 7.68 84.4944 7.68C85.4918 7.68 86.2764 7.97333 86.8484 8.56C87.4204 9.132 87.7064 9.93867 87.7064 10.98L86.9364 10.21H87.7064L87.5964 7.9H90.8964V19.692C90.8964 21.012 90.4418 22.0533 89.5324 22.816C88.6378 23.5787 87.4131 23.96 85.8584 23.96H82.3384ZM85.6824 16.48C86.2838 16.48 86.7531 16.3113 87.0904 15.974C87.4278 15.622 87.5964 15.1307 87.5964 14.5V12.52C87.5964 11.8893 87.4278 11.4053 87.0904 11.068C86.7531 10.716 86.2838 10.54 85.6824 10.54C85.0664 10.54 84.5898 10.716 84.2524 11.068C83.9298 11.4053 83.7684 11.8893 83.7684 12.52V14.5C83.7684 15.1307 83.9298 15.622 84.2524 15.974C84.5898 16.3113 85.0664 16.48 85.6824 16.48ZM98.9398 20.22C97.8692 20.22 96.9378 20.022 96.1458 19.626C95.3538 19.2153 94.7378 18.6507 94.2978 17.932C93.8725 17.1987 93.6598 16.348 93.6598 15.38V12.52C93.6598 11.552 93.8725 10.7087 94.2978 9.99C94.7378 9.25667 95.3538 8.692 96.1458 8.296C96.9378 7.88533 97.8692 7.68 98.9398 7.68C100.025 7.68 100.957 7.88533 101.734 8.296C102.526 8.692 103.135 9.25667 103.56 9.99C104 10.7087 104.22 11.552 104.22 12.52V15.38C104.22 16.348 104 17.1987 103.56 17.932C103.135 18.6507 102.526 19.2153 101.734 19.626C100.957 20.022 100.025 20.22 98.9398 20.22ZM98.9398 17.36C99.5852 17.36 100.077 17.1913 100.414 16.854C100.751 16.502 100.92 16.0107 100.92 15.38V12.52C100.92 11.8747 100.751 11.3833 100.414 11.046C100.077 10.7087 99.5852 10.54 98.9398 10.54C98.3092 10.54 97.8178 10.7087 97.4658 11.046C97.1285 11.3833 96.9598 11.8747 96.9598 12.52V15.38C96.9598 16.0107 97.1285 16.502 97.4658 16.854C97.8178 17.1913 98.3092 17.36 98.9398 17.36ZM106.983 20V7.9H110.173V10.21H111.141L110.173 10.98C110.173 9.95333 110.467 9.14667 111.053 8.56C111.64 7.97333 112.432 7.68 113.429 7.68C114.603 7.68 115.541 8.09067 116.245 8.912C116.964 9.73333 117.323 10.826 117.323 12.19V20H114.023V12.52C114.023 11.8893 113.855 11.4053 113.517 11.068C113.195 10.716 112.733 10.54 112.131 10.54C111.545 10.54 111.09 10.716 110.767 11.068C110.445 11.4053 110.283 11.8893 110.283 12.52V20H106.983Z" fill="black"/>
<path d="M49.04 33.1C48.5533 33.1 48.1267 33.01 47.76 32.83C47.3933 32.6433 47.1067 32.3867 46.9 32.06C46.7 31.7267 46.6 31.34 46.6 30.9V27.8C46.6 27.3533 46.7 26.9667 46.9 26.64C47.1067 26.3133 47.3933 26.06 47.76 25.88C48.1267 25.6933 48.5533 25.6 49.04 25.6C49.5333 25.6 49.96 25.6933 50.32 25.88C50.6867 26.06 50.97 26.3133 51.17 26.64C51.3767 26.9667 51.48 27.3533 51.48 27.8H49.98C49.98 27.5067 49.8967 27.2833 49.73 27.13C49.57 26.9767 49.34 26.9 49.04 26.9C48.74 26.9 48.5067 26.9767 48.34 27.13C48.18 27.2833 48.1 27.5067 48.1 27.8V30.9C48.1 31.1867 48.18 31.41 48.34 31.57C48.5067 31.7233 48.74 31.8 49.04 31.8C49.34 31.8 49.57 31.7233 49.73 31.57C49.8967 31.41 49.98 31.1867 49.98 30.9H51.48C51.48 31.34 51.3767 31.7267 51.17 32.06C50.97 32.3867 50.6867 32.6433 50.32 32.83C49.96 33.01 49.5333 33.1 49.04 33.1ZM54.9961 33.1C54.5094 33.1 54.0861 33.01 53.7261 32.83C53.3661 32.6433 53.0861 32.3867 52.8861 32.06C52.6928 31.7267 52.5961 31.34 52.5961 30.9V29.6C52.5961 29.16 52.6928 28.7767 52.8861 28.45C53.0861 28.1167 53.3661 27.86 53.7261 27.68C54.0861 27.4933 54.5094 27.4 54.9961 27.4C55.4894 27.4 55.9128 27.4933 56.2661 27.68C56.6261 27.86 56.9028 28.1167 57.0961 28.45C57.2961 28.7767 57.3961 29.16 57.3961 29.6V30.9C57.3961 31.34 57.2961 31.7267 57.0961 32.06C56.9028 32.3867 56.6261 32.6433 56.2661 32.83C55.9128 33.01 55.4894 33.1 54.9961 33.1ZM54.9961 31.8C55.2894 31.8 55.5128 31.7233 55.6661 31.57C55.8194 31.41 55.8961 31.1867 55.8961 30.9V29.6C55.8961 29.3067 55.8194 29.0833 55.6661 28.93C55.5128 28.7767 55.2894 28.7 54.9961 28.7C54.7094 28.7 54.4861 28.7767 54.3261 28.93C54.1728 29.0833 54.0961 29.3067 54.0961 29.6V30.9C54.0961 31.1867 54.1728 31.41 54.3261 31.57C54.4861 31.7233 54.7094 31.8 54.9961 31.8ZM61.8922 33C61.5055 33 61.1655 32.92 60.8722 32.76C60.5789 32.5933 60.3489 32.3633 60.1822 32.07C60.0222 31.7767 59.9422 31.4367 59.9422 31.05V27.05H58.2422V25.7H61.4422V31.05C61.4422 31.23 61.4955 31.3767 61.6022 31.49C61.7155 31.5967 61.8622 31.65 62.0422 31.65H63.6422V33H61.8922ZM67.8883 33C67.5016 33 67.1616 32.92 66.8683 32.76C66.5749 32.5933 66.3449 32.3633 66.1783 32.07C66.0183 31.7767 65.9383 31.4367 65.9383 31.05V27.05H64.2383V25.7H67.4383V31.05C67.4383 31.23 67.4916 31.3767 67.5983 31.49C67.7116 31.5967 67.8583 31.65 68.0383 31.65H69.6383V33H67.8883ZM72.9944 33.1C72.5077 33.1 72.081 33.01 71.7144 32.83C71.3544 32.6433 71.0744 32.3867 70.8744 32.06C70.681 31.7267 70.5844 31.34 70.5844 30.9V29.6C70.5844 29.16 70.681 28.7767 70.8744 28.45C71.0744 28.1167 71.3544 27.86 71.7144 27.68C72.081 27.4933 72.5077 27.4 72.9944 27.4C73.481 27.4 73.901 27.4933 74.2544 27.68C74.6144 27.86 74.891 28.1167 75.0844 28.45C75.2844 28.7767 75.3844 29.16 75.3844 29.6V30.6H72.0144V30.9C72.0144 31.2467 72.0977 31.51 72.2644 31.69C72.431 31.8633 72.681 31.95 73.0144 31.95C73.2477 31.95 73.4344 31.91 73.5744 31.83C73.721 31.75 73.8177 31.64 73.8644 31.5H75.3344C75.2144 31.98 74.941 32.3667 74.5144 32.66C74.0944 32.9533 73.5877 33.1 72.9944 33.1ZM73.9544 29.83V29.58C73.9544 29.24 73.8744 28.98 73.7144 28.8C73.561 28.62 73.321 28.53 72.9944 28.53C72.6677 28.53 72.421 28.6233 72.2544 28.81C72.0944 28.9967 72.0144 29.26 72.0144 29.6V29.75L74.0544 29.73L73.9544 29.83ZM79.0105 33.1C78.5238 33.1 78.0971 33.01 77.7305 32.83C77.3638 32.6433 77.0805 32.3867 76.8805 32.06C76.6805 31.7267 76.5805 31.34 76.5805 30.9V29.6C76.5805 29.1533 76.6805 28.7667 76.8805 28.44C77.0805 28.1133 77.3638 27.86 77.7305 27.68C78.0971 27.4933 78.5238 27.4 79.0105 27.4C79.7371 27.4 80.3171 27.5833 80.7505 27.95C81.1838 28.3167 81.4138 28.8167 81.4405 29.45H79.9405C79.9205 29.2167 79.8271 29.0333 79.6605 28.9C79.5005 28.7667 79.2838 28.7 79.0105 28.7C78.7105 28.7 78.4805 28.7767 78.3205 28.93C78.1605 29.0833 78.0805 29.3067 78.0805 29.6V30.9C78.0805 31.1867 78.1605 31.41 78.3205 31.57C78.4805 31.7233 78.7105 31.8 79.0105 31.8C79.2838 31.8 79.5005 31.7367 79.6605 31.61C79.8271 31.4767 79.9205 31.29 79.9405 31.05H81.4405C81.4138 31.6833 81.1838 32.1833 80.7505 32.55C80.3171 32.9167 79.7371 33.1 79.0105 33.1ZM85.5766 33C85.0166 33 84.5766 32.84 84.2566 32.52C83.9366 32.2 83.7766 31.76 83.7766 31.2V28.85H82.3266V27.5H83.7766V25.95H85.2766V27.5H87.3266V28.85H85.2766V31.2C85.2766 31.5 85.4266 31.65 85.7266 31.65H87.2266V33H85.5766ZM88.6727 33V31.64H90.5727V28.85H88.9227V27.5H91.9727V31.64H93.5727V33H88.6727ZM91.1727 26.63C90.8993 26.63 90.6793 26.56 90.5127 26.42C90.3527 26.28 90.2727 26.09 90.2727 25.85C90.2727 25.61 90.3527 25.42 90.5127 25.28C90.6793 25.14 90.8993 25.07 91.1727 25.07C91.446 25.07 91.6627 25.14 91.8227 25.28C91.9893 25.42 92.0727 25.61 92.0727 25.85C92.0727 26.09 91.9893 26.28 91.8227 26.42C91.6627 26.56 91.446 26.63 91.1727 26.63ZM97.5388 33.1C97.0854 33.1 96.7288 32.97 96.4688 32.71C96.2088 32.4433 96.0788 32.0733 96.0788 31.6L96.4288 31.95H96.0788V33H94.6287V25.7H96.1288V27.2L96.0788 28.55H96.4288L96.0788 28.9C96.0788 28.4267 96.2088 28.06 96.4688 27.8C96.7288 27.5333 97.0854 27.4 97.5388 27.4C98.0921 27.4 98.5354 27.5967 98.8688 27.99C99.2021 28.3767 99.3688 28.8967 99.3688 29.55V30.95C99.3688 31.61 99.2021 32.1333 98.8688 32.52C98.5354 32.9067 98.0921 33.1 97.5388 33.1ZM96.9988 31.8C97.2788 31.8 97.4921 31.7233 97.6388 31.57C97.7921 31.41 97.8688 31.1867 97.8688 30.9V29.6C97.8688 29.3133 97.7921 29.0933 97.6388 28.94C97.4921 28.78 97.2788 28.7 96.9988 28.7C96.7254 28.7 96.5121 28.78 96.3588 28.94C96.2054 29.0933 96.1288 29.3133 96.1288 29.6V30.9C96.1288 31.1867 96.2054 31.41 96.3588 31.57C96.5121 31.7233 96.7254 31.8 96.9988 31.8ZM103.865 33C103.478 33 103.138 32.92 102.845 32.76C102.552 32.5933 102.322 32.3633 102.155 32.07C101.995 31.7767 101.915 31.4367 101.915 31.05V27.05H100.215V25.7H103.415V31.05C103.415 31.23 103.468 31.3767 103.575 31.49C103.688 31.5967 103.835 31.65 104.015 31.65H105.615V33H103.865ZM108.971 33.1C108.484 33.1 108.058 33.01 107.691 32.83C107.331 32.6433 107.051 32.3867 106.851 32.06C106.658 31.7267 106.561 31.34 106.561 30.9V29.6C106.561 29.16 106.658 28.7767 106.851 28.45C107.051 28.1167 107.331 27.86 107.691 27.68C108.058 27.4933 108.484 27.4 108.971 27.4C109.458 27.4 109.878 27.4933 110.231 27.68C110.591 27.86 110.868 28.1167 111.061 28.45C111.261 28.7767 111.361 29.16 111.361 29.6V30.6H107.991V30.9C107.991 31.2467 108.074 31.51 108.241 31.69C108.408 31.8633 108.658 31.95 108.991 31.95C109.224 31.95 109.411 31.91 109.551 31.83C109.698 31.75 109.794 31.64 109.841 31.5H111.311C111.191 31.98 110.918 32.3667 110.491 32.66C110.071 32.9533 109.564 33.1 108.971 33.1ZM109.931 29.83V29.58C109.931 29.24 109.851 28.98 109.691 28.8C109.538 28.62 109.298 28.53 108.971 28.53C108.644 28.53 108.398 28.6233 108.231 28.81C108.071 28.9967 107.991 29.26 107.991 29.6V29.75L110.031 29.73L109.931 29.83ZM114.727 33.1C114.274 33.1 113.877 33.03 113.537 32.89C113.197 32.7433 112.93 32.5433 112.737 32.29C112.55 32.0367 112.457 31.74 112.457 31.4H113.957C113.957 31.56 114.027 31.69 114.167 31.79C114.314 31.8833 114.5 31.93 114.727 31.93H115.167C115.44 31.93 115.647 31.88 115.787 31.78C115.934 31.68 116.007 31.54 116.007 31.36C116.007 31.1933 115.944 31.0667 115.817 30.98C115.69 30.8867 115.494 30.8233 115.227 30.79L114.587 30.71C113.9 30.6233 113.4 30.4567 113.087 30.21C112.774 29.9633 112.617 29.5867 112.617 29.08C112.617 28.5467 112.8 28.1333 113.167 27.84C113.534 27.5467 114.07 27.4 114.777 27.4H115.157C115.83 27.4 116.367 27.5467 116.767 27.84C117.167 28.1333 117.367 28.5267 117.367 29.02H115.867C115.867 28.8867 115.8 28.78 115.667 28.7C115.54 28.6133 115.37 28.57 115.157 28.57H114.777C114.53 28.57 114.35 28.6133 114.237 28.7C114.124 28.78 114.067 28.9033 114.067 29.07C114.067 29.2233 114.117 29.34 114.217 29.42C114.324 29.5 114.49 29.5567 114.717 29.59L115.407 29.68C116.1 29.7667 116.614 29.94 116.947 30.2C117.287 30.46 117.457 30.8467 117.457 31.36C117.457 31.92 117.264 32.35 116.877 32.65C116.49 32.95 115.92 33.1 115.167 33.1H114.727Z" fill="black"/>
</svg>
